<?xml version="1.0" encoding="UTF-8"?>
<svg version="1.1" xmlns="http://www.w3.org/2000/svg" width="1050" height="600">
<path d="M0 0 C0 98.01 0 196.02 0 297 C-19.47 297 -38.94 297 -59 297 C-59 277.86 -59 258.72 -59 239 C-62.96 239 -66.92 239 -71 239 C-71 258.14 -71 277.28 -71 297 C-90.8 297 -110.6 297 -131 297 C-131.33 237.93 -131.66 178.86 -132 118 C-136.95 121.63 -141.9 125.26 -147 129 C-153.75 127.875 -153.75 127.875 -156.6484375 125.93359375 C-157.26074219 125.53076172 -157.87304688 125.12792969 -158.50390625 124.71289062 C-159.12136719 124.29201172 -159.73882812 123.87113281 -160.375 123.4375 C-161.33599609 122.80038086 -161.33599609 122.80038086 -162.31640625 122.15039062 C-163.8837215 121.10941258 -165.44273501 120.05595366 -167 119 C-165.49155425 114.44301704 -161.75623392 112.49535211 -157.9375 110 C-156.47582255 109.0206347 -155.01490946 108.04012785 -153.5546875 107.05859375 C-152.42305176 106.30231689 -152.42305176 106.30231689 -151.26855469 105.53076172 C-147.66083289 103.09636485 -144.11161221 100.58125141 -140.5625 98.0625 C-139.13674018 97.05335513 -137.71095882 96.04424071 -136.28515625 95.03515625 C-135.57762207 94.53387207 -134.87008789 94.03258789 -134.14111328 93.51611328 C-130.59702687 91.00656064 -127.04823742 88.50367811 -123.5 86 C-122.79810547 85.50435547 -122.09621094 85.00871094 -121.37304688 84.49804688 C-117.84590173 82.00734475 -114.31717066 79.51894937 -110.78515625 77.03515625 C-103.52764888 71.92767914 -96.30420414 66.77954977 -89.125 61.5625 C-82.20307811 56.5362144 -75.18062454 51.67796046 -68.10375977 46.87304688 C-61.93570518 42.6723401 -55.87684777 38.33676174 -49.84204102 33.94750977 C-41.78889448 28.0987333 -33.62264737 22.41473313 -25.46044922 16.71972656 C-21.46615168 13.92791947 -17.4819936 11.12181832 -13.5 8.3125 C-12.7999585 7.81935303 -12.09991699 7.32620605 -11.37866211 6.81811523 C-10.72776611 6.35864502 -10.07687012 5.8991748 -9.40625 5.42578125 C-8.808125 5.00377441 -8.21 4.58176758 -7.59375 4.14697266 C-6.25790484 3.18560615 -4.95293037 2.18154058 -3.65625 1.16796875 C-2 0 -2 0 0 0 Z M-25.5 42.25 C-27.06637387 43.36202478 -28.632781 44.4740027 -30.19921875 45.5859375 C-31.40263916 46.44203613 -31.40263916 46.44203613 -32.63037109 47.31542969 C-36.18570047 49.84291503 -39.74860737 52.35961 -43.3125 54.875 C-44.00472656 55.36387695 -44.69695312 55.85275391 -45.41015625 56.35644531 C-51.77788055 60.85045512 -58.16430283 65.31758135 -64.55126953 69.78417969 C-71.32067361 74.52001978 -78.07467256 79.27726286 -84.8203125 84.046875 C-87.72874429 86.10328631 -90.64060846 88.15472435 -93.5546875 90.203125 C-94.30919189 90.73405762 -95.06369629 91.26499023 -95.84106445 91.81201172 C-97.26601088 92.81459519 -98.6915751 93.81630152 -100.11791992 94.81689453 C-101.39401811 95.71546657 -102.65940382 96.62954652 -103.91086578 97.56212425 C-106 99 -106 99 -108.09915924 99.97356606 C-110.73814523 101.38153391 -112.20892065 102.58086865 -114 105 C-115.21077832 110.7803723 -115.01137889 116.50601319 -114.90820312 122.38818359 C-114.90594563 124.18214822 -114.90721498 125.97612024 -114.91174316 127.77008057 C-114.91403739 132.63385563 -114.86702532 137.49605049 -114.8111515 142.35945845 C-114.7611203 147.44427941 -114.75644006 152.52913714 -114.74694824 157.61416626 C-114.72208916 167.24037555 -114.65644816 176.86585747 -114.57615232 186.49174654 C-114.48671421 197.45167097 -114.44274243 208.41163025 -114.40258884 219.37182879 C-114.31898158 241.91496938 -114.17666714 264.45741324 -114 287 C-104.1 287 -94.2 287 -84 287 C-84 266.87 -84 246.74 -84 226 C-71.46 226 -58.92 226 -46 226 C-46 246.13 -46 266.26 -46 287 C-36.43 287 -26.86 287 -17 287 C-17 204.5 -17 122 -17 37 C-19.68506457 37 -23.26661178 40.65559472 -25.5 42.25 Z " fill="#0099CD" transform="translate(503,83)"/>
<path d="M0 0 C3.70006761 1.8500338 6.91662787 3.96488145 10.25 6.375 C10.86206299 6.81489258 11.47412598 7.25478516 12.10473633 7.70800781 C17.34902019 11.49381435 22.5256331 15.36752346 27.69116211 19.25976562 C32.87453293 23.16410684 38.08587266 27.02877945 43.3125 30.875 C44.10817383 31.46063721 44.90384766 32.04627441 45.72363281 32.6496582 C48.93892607 35.01515839 52.15518344 37.37934329 55.37207031 39.74267578 C65.12539492 46.90900284 74.84252723 54.11974646 84.51708984 61.39208984 C93.30035846 67.9885108 102.14777557 74.49658523 111 81 C120.66787807 88.10551959 130.33405274 95.21132755 139.90917969 102.44165039 C143.6393419 105.25242628 147.39704187 108.01944458 151.18359375 110.75390625 C152.05693359 111.38748047 152.93027344 112.02105469 153.83007812 112.67382812 C155.53915391 113.91178789 157.25256395 115.14379079 158.97070312 116.36914062 C159.74220703 116.92923828 160.51371094 117.48933594 161.30859375 118.06640625 C161.99751709 118.56084229 162.68644043 119.05527832 163.39624023 119.56469727 C165 121 165 121 166 124 C163.27411167 125.00981089 160.54487736 126.00803308 157.8125 127 C157.04357422 127.28617187 156.27464844 127.57234375 155.48242188 127.8671875 C154.73154297 128.13789063 153.98066406 128.40859375 153.20703125 128.6875 C152.17799683 129.06455078 152.17799683 129.06455078 151.12817383 129.44921875 C149 130 149 130 144 130 C139.38 126.7 134.76 123.4 130 120 C130 145.08 130 170.16 130 196 C92.71 196 55.42 196 17 196 C17 224.38 17 252.76 17 282 C48.35 282 79.7 282 112 282 C112 268.14 112 254.28 112 240 C117.94 240 123.88 240 130 240 C130 259.14 130 278.28 130 298 C87.1 298 44.2 298 0 298 C0 259.39 0 220.78 0 181 C37.29 181 74.58 181 113 181 C113 156.25 113 131.5 113 106 C111.02 105.01 111.02 105.01 109 104 C107.83657924 103.24859301 106.68954361 102.47132027 105.55859375 101.671875 C104.9025415 101.20918213 104.24648926 100.74648926 103.57055664 100.26977539 C102.86664795 99.76824951 102.16273926 99.26672363 101.4375 98.75 C100.69298584 98.22204834 99.94847168 97.69409668 99.18139648 97.15014648 C92.78837682 92.59910438 86.46737189 87.95276388 80.15991211 83.28417969 C74.80001587 79.31823718 69.41223131 75.39417367 64 71.5 C57.01177869 66.47016364 50.07158467 61.37852299 43.1472168 56.26123047 C34.81207051 50.10862534 26.4104393 44.04908537 18 38 C17.67 44.27 17.34 50.54 17 57 C11.39 57 5.78 57 0 57 C0 38.19 0 19.38 0 0 Z " fill="#0098CD" transform="translate(509,82)"/>
<path d="M0 0 C4.74937519 1.58312506 8.9359093 3.36290917 13.33203125 5.66015625 C14.00924728 6.0100914 14.68646332 6.36002655 15.38420105 6.7205658 C16.80464026 7.45562435 18.22400416 8.19276424 19.64233398 8.93188477 C21.8209146 10.06688384 24.00291729 11.19507568 26.18554688 12.32226562 C27.56791214 13.03866937 28.95008077 13.75545271 30.33203125 14.47265625 C30.9861348 14.81120132 31.64023834 15.1497464 32.31416321 15.49855042 C36.88359538 17.88359538 36.88359538 17.88359538 38 19 C38.09326716 20.56547048 38.11745582 22.13512772 38.11352539 23.70336914 C38.11344986 24.70433121 38.11337433 25.70529327 38.11329651 26.73658752 C38.10813522 27.8251152 38.10297394 28.91364288 38.09765625 30.03515625 C38.0962413 31.14354355 38.09482635 32.25193085 38.09336853 33.39390564 C38.08775033 36.95013069 38.07519475 40.50629383 38.0625 44.0625 C38.05748734 46.46679597 38.05292403 48.87109292 38.04882812 51.27539062 C38.0386239 57.18363706 38.01905205 63.09174885 38 69 C25.46 69 12.92 69 0 69 C0 46.23 0 23.46 0 0 Z " fill="#01A5D4" transform="translate(548,181)"/>
<path d="M0 0 C0 22.77 0 45.54 0 69 C-12.54 69 -25.08 69 -38 69 C-38 52.5 -38 36 -38 19 C-3.41573034 0 -3.41573034 0 0 0 Z " fill="#01A5D4" transform="translate(457,181)"/>
<path d="M0 0 C11.55 0 23.1 0 35 0 C35 9.24 35 18.48 35 28 C23.45 28 11.9 28 0 28 C0 18.76 0 9.52 0 0 Z " fill="#0087C5" transform="translate(556,308)"/>
</svg>
